<svg width="60" height="60" viewBox="0 0 60 60" fill="none" xmlns="http://www.w3.org/2000/svg">
<circle cx="30" cy="30" r="30" fill="#6734AA"/>
<path d="M41.1538 49.3846C41.1538 51.9336 36.1945 54 30.0769 54C23.9593 54 19 51.9336 19 49.3846C19.9231 47.0769 23.9593 44.7692 30.0769 44.7692C36.1945 44.7692 40.2308 47.0769 41.1538 49.3846Z" fill="#DABF64"/>
<path d="M30.0769 30L41.1538 49.3846H19L30.0769 30Z" fill="#DABF64"/>
<path d="M19 10.6154C19 8.06635 23.9593 5.99997 30.0769 5.99997C36.1945 5.99997 41.1538 8.06635 41.1538 10.6154C40.2308 12.9231 36.1945 15.2307 30.0769 15.2307C23.9593 15.2307 19.9231 12.9231 19 10.6154Z" fill="#DABF64"/>
<path d="M30.0769 30L19 10.6154L41.1538 10.6154L30.0769 30Z" fill="#DABF64"/>
<path d="M50.5769 24C51.9576 24 53.0769 26.6863 53.0769 30C53.0769 33.3137 51.9576 35.9999 50.5769 35.9999C49.3269 35.4999 48.0769 33.3137 48.0769 30C48.0769 26.6863 49.3269 24.5 50.5769 24Z" fill="#DABF64"/>
<path d="M40.0769 30L50.5769 24V35.9999L40.0769 30Z" fill="#DABF64"/>
<path d="M9.57695 35.9999C8.19624 35.9999 7.07696 33.3136 7.07696 30C7.07696 26.6863 8.19624 24 9.57695 24C10.8269 24.5 12.0769 26.6863 12.0769 30C12.0769 33.3136 10.8269 35.4999 9.57695 35.9999Z" fill="#DABF64"/>
<path d="M20.0769 29.9999L9.57695 35.9999L9.57695 24L20.0769 29.9999Z" fill="#DABF64"/>
</svg>
