<svg width="260" height="65" viewBox="0 0 260 65" fill="none" xmlns="http://www.w3.org/2000/svg">
<path d="M83.488 26.232C83.2107 26.4667 82.848 26.6587 82.4 26.808C81.9733 26.936 81.472 27 80.896 27C80.128 27 79.488 26.904 78.976 26.712C78.4853 26.52 78.1653 26.1893 78.016 25.72C77.4187 23.8427 76.928 22.328 76.544 21.176C76.16 20.0027 75.8613 18.9787 75.648 18.104H75.488C75.424 19.3627 75.3707 20.5147 75.328 21.56C75.3067 22.584 75.2853 23.5867 75.264 24.568C75.264 25.5493 75.2427 26.5413 75.2 27.544C75.1787 28.5467 75.136 29.656 75.072 30.872C74.7947 30.9787 74.432 31.064 73.984 31.128C73.536 31.2133 73.088 31.256 72.64 31.256C71.7013 31.256 70.9653 31.1067 70.432 30.808C69.92 30.5093 69.664 29.9653 69.664 29.176L70.592 12.856C70.7627 12.5787 71.136 12.28 71.712 11.96C72.288 11.64 73.0987 11.48 74.144 11.48C75.2747 11.48 76.16 11.6613 76.8 12.024C77.44 12.3653 77.9093 12.9307 78.208 13.72C78.4 14.232 78.6027 14.8187 78.816 15.48C79.0507 16.1413 79.2747 16.824 79.488 17.528C79.7227 18.232 79.9467 18.936 80.16 19.64C80.3733 20.3227 80.5653 20.9413 80.736 21.496H80.896C81.408 19.704 81.92 17.976 82.432 16.312C82.944 14.6267 83.4133 13.2187 83.84 12.088C84.16 11.9173 84.5653 11.7787 85.056 11.672C85.568 11.544 86.1333 11.48 86.752 11.48C87.7973 11.48 88.6507 11.64 89.312 11.96C89.9733 12.2587 90.3573 12.696 90.464 13.272C90.5493 13.6987 90.6347 14.36 90.72 15.256C90.8267 16.1307 90.9333 17.1227 91.04 18.232C91.1467 19.3413 91.2533 20.5147 91.36 21.752C91.4667 22.9893 91.5627 24.184 91.648 25.336C91.7547 26.4667 91.84 27.512 91.904 28.472C91.968 29.4107 92.0107 30.136 92.032 30.648C91.6693 30.8613 91.2853 31.0107 90.88 31.096C90.496 31.2027 89.9947 31.256 89.376 31.256C88.5653 31.256 87.8827 31.1173 87.328 30.84C86.7733 30.5627 86.4747 30.0187 86.432 29.208C86.304 26.8827 86.2187 24.792 86.176 22.936C86.1547 21.08 86.112 19.5227 86.048 18.264H85.888C85.6747 19.096 85.3653 20.1413 84.96 21.4C84.5547 22.6587 84.064 24.2693 83.488 26.232ZM103.263 31.512C102.004 31.512 100.831 31.3413 99.743 31C98.6763 30.6373 97.7377 30.104 96.927 29.4C96.1377 28.696 95.5083 27.8107 95.039 26.744C94.591 25.6773 94.367 24.4293 94.367 23C94.367 21.592 94.591 20.3867 95.039 19.384C95.5083 18.36 96.1163 17.528 96.863 16.888C97.6097 16.2267 98.463 15.7467 99.423 15.448C100.383 15.128 101.364 14.968 102.367 14.968C103.498 14.968 104.522 15.1387 105.439 15.48C106.378 15.8213 107.178 16.2907 107.839 16.888C108.522 17.4853 109.044 18.2 109.407 19.032C109.791 19.864 109.983 20.7707 109.983 21.752C109.983 22.4773 109.78 23.032 109.375 23.416C108.97 23.8 108.404 24.0453 107.679 24.152L99.775 25.336C100.01 26.04 100.49 26.5733 101.215 26.936C101.94 27.2773 102.772 27.448 103.711 27.448C104.586 27.448 105.407 27.3413 106.175 27.128C106.964 26.8933 107.604 26.6267 108.095 26.328C108.436 26.5413 108.724 26.84 108.959 27.224C109.194 27.608 109.311 28.0133 109.311 28.44C109.311 29.4 108.863 30.1147 107.967 30.584C107.284 30.9467 106.516 31.192 105.663 31.32C104.81 31.448 104.01 31.512 103.263 31.512ZM102.367 18.936C101.855 18.936 101.407 19.0213 101.023 19.192C100.66 19.3627 100.362 19.5867 100.127 19.864C99.8923 20.12 99.711 20.4187 99.583 20.76C99.4763 21.08 99.4123 21.4107 99.391 21.752L104.863 20.856C104.799 20.4293 104.564 20.0027 104.159 19.576C103.754 19.1493 103.156 18.936 102.367 18.936ZM118.042 25.656C118.042 26.2107 118.212 26.6053 118.554 26.84C118.916 27.0747 119.418 27.192 120.058 27.192C120.378 27.192 120.708 27.1707 121.05 27.128C121.391 27.064 121.69 26.9893 121.946 26.904C122.138 27.1387 122.298 27.4053 122.426 27.704C122.575 27.9813 122.65 28.3227 122.65 28.728C122.65 29.5387 122.34 30.2 121.722 30.712C121.124 31.224 120.058 31.48 118.522 31.48C116.644 31.48 115.194 31.0533 114.17 30.2C113.167 29.3467 112.666 27.96 112.666 26.04V12.344C112.9 12.28 113.231 12.216 113.658 12.152C114.106 12.0667 114.575 12.024 115.066 12.024C116.004 12.024 116.73 12.1947 117.242 12.536C117.775 12.856 118.042 13.5493 118.042 14.616V16.664H122.234C122.362 16.8987 122.479 17.1973 122.586 17.56C122.714 17.9013 122.778 18.2853 122.778 18.712C122.778 19.4587 122.607 20.0027 122.266 20.344C121.946 20.664 121.508 20.824 120.954 20.824H118.042V25.656ZM132.07 27.544C132.433 27.544 132.827 27.512 133.254 27.448C133.702 27.3627 134.033 27.256 134.246 27.128V24.568L131.942 24.76C131.345 24.8027 130.854 24.9307 130.47 25.144C130.086 25.3573 129.894 25.6773 129.894 26.104C129.894 26.5307 130.054 26.8827 130.374 27.16C130.715 27.416 131.281 27.544 132.07 27.544ZM131.814 14.968C132.966 14.968 134.011 15.0853 134.95 15.32C135.91 15.5547 136.721 15.9173 137.382 16.408C138.065 16.8773 138.587 17.4853 138.95 18.232C139.313 18.9573 139.494 19.8213 139.494 20.824V27.992C139.494 28.5467 139.334 29.0053 139.014 29.368C138.715 29.7093 138.353 30.008 137.926 30.264C136.539 31.096 134.587 31.512 132.07 31.512C130.939 31.512 129.915 31.4053 128.998 31.192C128.102 30.9787 127.323 30.6587 126.662 30.232C126.022 29.8053 125.521 29.2613 125.158 28.6C124.817 27.9387 124.646 27.1707 124.646 26.296C124.646 24.824 125.083 23.6933 125.958 22.904C126.833 22.1147 128.187 21.624 130.022 21.432L134.214 20.984V20.76C134.214 20.1413 133.937 19.704 133.382 19.448C132.849 19.1707 132.07 19.032 131.046 19.032C130.235 19.032 129.446 19.1173 128.678 19.288C127.91 19.4587 127.217 19.672 126.598 19.928C126.321 19.736 126.086 19.448 125.894 19.064C125.702 18.6587 125.606 18.2427 125.606 17.816C125.606 17.2613 125.734 16.824 125.99 16.504C126.267 16.1627 126.683 15.8747 127.238 15.64C127.857 15.4053 128.582 15.2347 129.414 15.128C130.267 15.0213 131.067 14.968 131.814 14.968ZM83.488 51.232C83.2107 51.4667 82.848 51.6587 82.4 51.808C81.9733 51.936 81.472 52 80.896 52C80.128 52 79.488 51.904 78.976 51.712C78.4853 51.52 78.1653 51.1893 78.016 50.72C77.4187 48.8427 76.928 47.328 76.544 46.176C76.16 45.0027 75.8613 43.9787 75.648 43.104H75.488C75.424 44.3627 75.3707 45.5147 75.328 46.56C75.3067 47.584 75.2853 48.5867 75.264 49.568C75.264 50.5493 75.2427 51.5413 75.2 52.544C75.1787 53.5467 75.136 54.656 75.072 55.872C74.7947 55.9787 74.432 56.064 73.984 56.128C73.536 56.2133 73.088 56.256 72.64 56.256C71.7013 56.256 70.9653 56.1067 70.432 55.808C69.92 55.5093 69.664 54.9653 69.664 54.176L70.592 37.856C70.7627 37.5787 71.136 37.28 71.712 36.96C72.288 36.64 73.0987 36.48 74.144 36.48C75.2747 36.48 76.16 36.6613 76.8 37.024C77.44 37.3653 77.9093 37.9307 78.208 38.72C78.4 39.232 78.6027 39.8187 78.816 40.48C79.0507 41.1413 79.2747 41.824 79.488 42.528C79.7227 43.232 79.9467 43.936 80.16 44.64C80.3733 45.3227 80.5653 45.9413 80.736 46.496H80.896C81.408 44.704 81.92 42.976 82.432 41.312C82.944 39.6267 83.4133 38.2187 83.84 37.088C84.16 36.9173 84.5653 36.7787 85.056 36.672C85.568 36.544 86.1333 36.48 86.752 36.48C87.7973 36.48 88.6507 36.64 89.312 36.96C89.9733 37.2587 90.3573 37.696 90.464 38.272C90.5493 38.6987 90.6347 39.36 90.72 40.256C90.8267 41.1307 90.9333 42.1227 91.04 43.232C91.1467 44.3413 91.2533 45.5147 91.36 46.752C91.4667 47.9893 91.5627 49.184 91.648 50.336C91.7547 51.4667 91.84 52.512 91.904 53.472C91.968 54.4107 92.0107 55.136 92.032 55.648C91.6693 55.8613 91.2853 56.0107 90.88 56.096C90.496 56.2027 89.9947 56.256 89.376 56.256C88.5653 56.256 87.8827 56.1173 87.328 55.84C86.7733 55.5627 86.4747 55.0187 86.432 54.208C86.304 51.8827 86.2187 49.792 86.176 47.936C86.1547 46.08 86.112 44.5227 86.048 43.264H85.888C85.6747 44.096 85.3653 45.1413 84.96 46.4C84.5547 47.6587 84.064 49.2693 83.488 51.232ZM101.82 52.544C102.183 52.544 102.577 52.512 103.004 52.448C103.452 52.3627 103.783 52.256 103.996 52.128V49.568L101.692 49.76C101.095 49.8027 100.604 49.9307 100.22 50.144C99.836 50.3573 99.644 50.6773 99.644 51.104C99.644 51.5307 99.804 51.8827 100.124 52.16C100.465 52.416 101.031 52.544 101.82 52.544ZM101.564 39.968C102.716 39.968 103.761 40.0853 104.7 40.32C105.66 40.5547 106.471 40.9173 107.132 41.408C107.815 41.8773 108.337 42.4853 108.7 43.232C109.063 43.9573 109.244 44.8213 109.244 45.824V52.992C109.244 53.5467 109.084 54.0053 108.764 54.368C108.465 54.7093 108.103 55.008 107.676 55.264C106.289 56.096 104.337 56.512 101.82 56.512C100.689 56.512 99.6653 56.4053 98.748 56.192C97.852 55.9787 97.0733 55.6587 96.412 55.232C95.772 54.8053 95.2707 54.2613 94.908 53.6C94.5667 52.9387 94.396 52.1707 94.396 51.296C94.396 49.824 94.8333 48.6933 95.708 47.904C96.5827 47.1147 97.9373 46.624 99.772 46.432L103.964 45.984V45.76C103.964 45.1413 103.687 44.704 103.132 44.448C102.599 44.1707 101.82 44.032 100.796 44.032C99.9853 44.032 99.196 44.1173 98.428 44.288C97.66 44.4587 96.9667 44.672 96.348 44.928C96.0707 44.736 95.836 44.448 95.644 44.064C95.452 43.6587 95.356 43.2427 95.356 42.816C95.356 42.2613 95.484 41.824 95.74 41.504C96.0173 41.1627 96.4333 40.8747 96.988 40.64C97.6067 40.4053 98.332 40.2347 99.164 40.128C100.017 40.0213 100.817 39.968 101.564 39.968ZM122.426 46.144C122.426 45.4827 122.234 45.0027 121.85 44.704C121.488 44.384 120.986 44.224 120.346 44.224C119.92 44.224 119.493 44.2773 119.066 44.384C118.661 44.4907 118.309 44.6507 118.01 44.864V55.968C117.797 56.032 117.456 56.096 116.986 56.16C116.538 56.224 116.069 56.256 115.578 56.256C115.109 56.256 114.682 56.224 114.298 56.16C113.936 56.096 113.626 55.968 113.37 55.776C113.114 55.584 112.912 55.328 112.762 55.008C112.634 54.6667 112.57 54.2293 112.57 53.696V44.096C112.57 43.52 112.688 43.0507 112.922 42.688C113.178 42.3253 113.52 41.9947 113.946 41.696C114.672 41.184 115.578 40.768 116.666 40.448C117.776 40.128 119.002 39.968 120.346 39.968C122.757 39.968 124.613 40.5013 125.914 41.568C127.216 42.6133 127.866 44.0747 127.866 45.952V55.968C127.653 56.032 127.312 56.096 126.842 56.16C126.394 56.224 125.925 56.256 125.434 56.256C124.965 56.256 124.538 56.224 124.154 56.16C123.792 56.096 123.482 55.968 123.226 55.776C122.97 55.584 122.768 55.328 122.618 55.008C122.49 54.6667 122.426 54.2293 122.426 53.696V46.144ZM137.883 52.544C138.245 52.544 138.64 52.512 139.067 52.448C139.515 52.3627 139.845 52.256 140.059 52.128V49.568L137.755 49.76C137.157 49.8027 136.667 49.9307 136.283 50.144C135.899 50.3573 135.707 50.6773 135.707 51.104C135.707 51.5307 135.867 51.8827 136.187 52.16C136.528 52.416 137.093 52.544 137.883 52.544ZM137.627 39.968C138.779 39.968 139.824 40.0853 140.763 40.32C141.723 40.5547 142.533 40.9173 143.195 41.408C143.877 41.8773 144.4 42.4853 144.763 43.232C145.125 43.9573 145.307 44.8213 145.307 45.824V52.992C145.307 53.5467 145.147 54.0053 144.827 54.368C144.528 54.7093 144.165 55.008 143.739 55.264C142.352 56.096 140.4 56.512 137.883 56.512C136.752 56.512 135.728 56.4053 134.811 56.192C133.915 55.9787 133.136 55.6587 132.475 55.232C131.835 54.8053 131.333 54.2613 130.971 53.6C130.629 52.9387 130.459 52.1707 130.459 51.296C130.459 49.824 130.896 48.6933 131.771 47.904C132.645 47.1147 134 46.624 135.835 46.432L140.027 45.984V45.76C140.027 45.1413 139.749 44.704 139.195 44.448C138.661 44.1707 137.883 44.032 136.859 44.032C136.048 44.032 135.259 44.1173 134.491 44.288C133.723 44.4587 133.029 44.672 132.411 44.928C132.133 44.736 131.899 44.448 131.707 44.064C131.515 43.6587 131.419 43.2427 131.419 42.816C131.419 42.2613 131.547 41.824 131.803 41.504C132.08 41.1627 132.496 40.8747 133.051 40.64C133.669 40.4053 134.395 40.2347 135.227 40.128C136.08 40.0213 136.88 39.968 137.627 39.968ZM156.217 39.968C157.433 39.968 158.531 40.128 159.513 40.448C160.515 40.7467 161.358 41.1413 162.041 41.632C162.467 41.9307 162.798 42.2613 163.033 42.624C163.289 42.9867 163.417 43.456 163.417 44.032V55.232C163.417 56.3627 163.203 57.3333 162.777 58.144C162.35 58.976 161.763 59.6587 161.017 60.192C160.291 60.7467 159.427 61.152 158.425 61.408C157.443 61.664 156.387 61.792 155.257 61.792C153.315 61.792 151.79 61.5253 150.681 60.992C149.571 60.48 149.017 59.6373 149.017 58.464C149.017 57.9733 149.113 57.536 149.305 57.152C149.518 56.7893 149.753 56.512 150.009 56.32C150.627 56.6613 151.321 56.9493 152.089 57.184C152.878 57.4187 153.689 57.536 154.521 57.536C155.673 57.536 156.59 57.344 157.273 56.96C157.955 56.576 158.297 55.9573 158.297 55.104V54.592C157.422 54.976 156.355 55.168 155.097 55.168C154.137 55.168 153.219 55.0293 152.345 54.752C151.491 54.4533 150.734 54.0053 150.073 53.408C149.433 52.7893 148.91 52 148.505 51.04C148.121 50.08 147.929 48.9387 147.929 47.616C147.929 46.3147 148.131 45.184 148.537 44.224C148.963 43.264 149.539 42.4747 150.265 41.856C151.011 41.216 151.886 40.7467 152.889 40.448C153.913 40.128 155.022 39.968 156.217 39.968ZM158.201 44.608C158.051 44.5227 157.827 44.4373 157.529 44.352C157.251 44.2667 156.899 44.224 156.473 44.224C155.427 44.224 154.638 44.5227 154.105 45.12C153.593 45.696 153.337 46.528 153.337 47.616C153.337 48.8533 153.593 49.7493 154.105 50.304C154.638 50.8373 155.31 51.104 156.121 51.104C156.995 51.104 157.689 50.9013 158.201 50.496V44.608ZM175.013 56.512C173.754 56.512 172.581 56.3413 171.493 56C170.426 55.6373 169.488 55.104 168.677 54.4C167.888 53.696 167.258 52.8107 166.789 51.744C166.341 50.6773 166.117 49.4293 166.117 48C166.117 46.592 166.341 45.3867 166.789 44.384C167.258 43.36 167.866 42.528 168.613 41.888C169.36 41.2267 170.213 40.7467 171.173 40.448C172.133 40.128 173.114 39.968 174.117 39.968C175.248 39.968 176.272 40.1387 177.189 40.48C178.128 40.8213 178.928 41.2907 179.589 41.888C180.272 42.4853 180.794 43.2 181.157 44.032C181.541 44.864 181.733 45.7707 181.733 46.752C181.733 47.4773 181.53 48.032 181.125 48.416C180.72 48.8 180.154 49.0453 179.429 49.152L171.525 50.336C171.76 51.04 172.24 51.5733 172.965 51.936C173.69 52.2773 174.522 52.448 175.461 52.448C176.336 52.448 177.157 52.3413 177.925 52.128C178.714 51.8933 179.354 51.6267 179.845 51.328C180.186 51.5413 180.474 51.84 180.709 52.224C180.944 52.608 181.061 53.0133 181.061 53.44C181.061 54.4 180.613 55.1147 179.717 55.584C179.034 55.9467 178.266 56.192 177.413 56.32C176.56 56.448 175.76 56.512 175.013 56.512ZM174.117 43.936C173.605 43.936 173.157 44.0213 172.773 44.192C172.41 44.3627 172.112 44.5867 171.877 44.864C171.642 45.12 171.461 45.4187 171.333 45.76C171.226 46.08 171.162 46.4107 171.141 46.752L176.613 45.856C176.549 45.4293 176.314 45.0027 175.909 44.576C175.504 44.1493 174.906 43.936 174.117 43.936ZM191.808 39.968C192.682 39.968 193.536 40.096 194.368 40.352C195.221 40.5867 195.957 40.9493 196.576 41.44C197.216 41.0133 197.93 40.6613 198.72 40.384C199.53 40.1067 200.501 39.968 201.632 39.968C202.442 39.968 203.232 40.0747 204 40.288C204.789 40.5013 205.482 40.8427 206.08 41.312C206.698 41.76 207.189 42.368 207.552 43.136C207.914 43.8827 208.096 44.8 208.096 45.888V55.968C207.882 56.032 207.541 56.096 207.072 56.16C206.624 56.224 206.154 56.256 205.664 56.256C205.194 56.256 204.768 56.224 204.384 56.16C204.021 56.096 203.712 55.968 203.456 55.776C203.2 55.584 202.997 55.328 202.848 55.008C202.72 54.6667 202.656 54.2293 202.656 53.696V46.048C202.656 45.408 202.474 44.9493 202.112 44.672C201.749 44.3733 201.258 44.224 200.64 44.224C200.341 44.224 200.021 44.2987 199.68 44.448C199.338 44.576 199.082 44.7147 198.912 44.864C198.933 44.9493 198.944 45.0347 198.944 45.12C198.944 45.184 198.944 45.248 198.944 45.312V55.968C198.709 56.032 198.357 56.096 197.888 56.16C197.44 56.224 196.981 56.256 196.512 56.256C196.042 56.256 195.616 56.224 195.232 56.16C194.869 56.096 194.56 55.968 194.304 55.776C194.048 55.584 193.845 55.328 193.696 55.008C193.568 54.6667 193.504 54.2293 193.504 53.696V46.048C193.504 45.408 193.301 44.9493 192.896 44.672C192.512 44.3733 192.042 44.224 191.488 44.224C191.104 44.224 190.773 44.288 190.496 44.416C190.218 44.5227 189.984 44.6293 189.792 44.736V55.968C189.578 56.032 189.237 56.096 188.768 56.16C188.32 56.224 187.85 56.256 187.36 56.256C186.89 56.256 186.464 56.224 186.08 56.16C185.717 56.096 185.408 55.968 185.152 55.776C184.896 55.584 184.693 55.328 184.544 55.008C184.416 54.6667 184.352 54.2293 184.352 53.696V44.032C184.352 43.456 184.469 42.9973 184.704 42.656C184.96 42.3147 185.301 41.9947 185.728 41.696C186.453 41.184 187.349 40.768 188.416 40.448C189.504 40.128 190.634 39.968 191.808 39.968ZM219.638 56.512C218.379 56.512 217.206 56.3413 216.118 56C215.051 55.6373 214.113 55.104 213.302 54.4C212.513 53.696 211.883 52.8107 211.414 51.744C210.966 50.6773 210.742 49.4293 210.742 48C210.742 46.592 210.966 45.3867 211.414 44.384C211.883 43.36 212.491 42.528 213.238 41.888C213.985 41.2267 214.838 40.7467 215.798 40.448C216.758 40.128 217.739 39.968 218.742 39.968C219.873 39.968 220.897 40.1387 221.814 40.48C222.753 40.8213 223.553 41.2907 224.214 41.888C224.897 42.4853 225.419 43.2 225.782 44.032C226.166 44.864 226.358 45.7707 226.358 46.752C226.358 47.4773 226.155 48.032 225.75 48.416C225.345 48.8 224.779 49.0453 224.054 49.152L216.15 50.336C216.385 51.04 216.865 51.5733 217.59 51.936C218.315 52.2773 219.147 52.448 220.086 52.448C220.961 52.448 221.782 52.3413 222.55 52.128C223.339 51.8933 223.979 51.6267 224.47 51.328C224.811 51.5413 225.099 51.84 225.334 52.224C225.569 52.608 225.686 53.0133 225.686 53.44C225.686 54.4 225.238 55.1147 224.342 55.584C223.659 55.9467 222.891 56.192 222.038 56.32C221.185 56.448 220.385 56.512 219.638 56.512ZM218.742 43.936C218.23 43.936 217.782 44.0213 217.398 44.192C217.035 44.3627 216.737 44.5867 216.502 44.864C216.267 45.12 216.086 45.4187 215.958 45.76C215.851 46.08 215.787 46.4107 215.766 46.752L221.238 45.856C221.174 45.4293 220.939 45.0027 220.534 44.576C220.129 44.1493 219.531 43.936 218.742 43.936ZM238.833 46.144C238.833 45.4827 238.641 45.0027 238.257 44.704C237.894 44.384 237.393 44.224 236.753 44.224C236.326 44.224 235.899 44.2773 235.473 44.384C235.067 44.4907 234.715 44.6507 234.417 44.864V55.968C234.203 56.032 233.862 56.096 233.393 56.16C232.945 56.224 232.475 56.256 231.985 56.256C231.515 56.256 231.089 56.224 230.705 56.16C230.342 56.096 230.033 55.968 229.777 55.776C229.521 55.584 229.318 55.328 229.169 55.008C229.041 54.6667 228.977 54.2293 228.977 53.696V44.096C228.977 43.52 229.094 43.0507 229.329 42.688C229.585 42.3253 229.926 41.9947 230.353 41.696C231.078 41.184 231.985 40.768 233.073 40.448C234.182 40.128 235.409 39.968 236.753 39.968C239.163 39.968 241.019 40.5013 242.321 41.568C243.622 42.6133 244.273 44.0747 244.273 45.952V55.968C244.059 56.032 243.718 56.096 243.249 56.16C242.801 56.224 242.331 56.256 241.841 56.256C241.371 56.256 240.945 56.224 240.561 56.16C240.198 56.096 239.889 55.968 239.633 55.776C239.377 55.584 239.174 55.328 239.025 55.008C238.897 54.6667 238.833 54.2293 238.833 53.696V46.144ZM253.073 50.656C253.073 51.2107 253.243 51.6053 253.585 51.84C253.947 52.0747 254.449 52.192 255.089 52.192C255.409 52.192 255.739 52.1707 256.081 52.128C256.422 52.064 256.721 51.9893 256.977 51.904C257.169 52.1387 257.329 52.4053 257.457 52.704C257.606 52.9813 257.681 53.3227 257.681 53.728C257.681 54.5387 257.371 55.2 256.753 55.712C256.155 56.224 255.089 56.48 253.553 56.48C251.675 56.48 250.225 56.0533 249.201 55.2C248.198 54.3467 247.697 52.96 247.697 51.04V37.344C247.931 37.28 248.262 37.216 248.689 37.152C249.137 37.0667 249.606 37.024 250.097 37.024C251.035 37.024 251.761 37.1947 252.273 37.536C252.806 37.856 253.073 38.5493 253.073 39.616V41.664H257.265C257.393 41.8987 257.51 42.1973 257.617 42.56C257.745 42.9013 257.809 43.2853 257.809 43.712C257.809 44.4587 257.638 45.0027 257.297 45.344C256.977 45.664 256.539 45.824 255.985 45.824H253.073V50.656Z" fill="#6734AA"/>
<circle cx="32" cy="32" r="30" fill="#6734AA"/>
<path d="M43.1538 51.3846C43.1538 53.9336 38.1945 56 32.0769 56C25.9593 56 21 53.9336 21 51.3846C21.9231 49.0769 25.9593 46.7692 32.0769 46.7692C38.1945 46.7692 42.2308 49.0769 43.1538 51.3846Z" fill="#DABF64"/>
<path d="M32.0769 32L43.1538 51.3846H21L32.0769 32Z" fill="#DABF64"/>
<path d="M21 12.6154C21 10.0664 25.9593 7.99997 32.0769 7.99997C38.1945 7.99997 43.1538 10.0664 43.1538 12.6154C42.2308 14.9231 38.1945 17.2307 32.0769 17.2307C25.9593 17.2307 21.9231 14.9231 21 12.6154Z" fill="#DABF64"/>
<path d="M32.0769 32L21 12.6154L43.1538 12.6154L32.0769 32Z" fill="#DABF64"/>
<path d="M52.5769 26C53.9576 26 55.0769 28.6863 55.0769 32C55.0769 35.3137 53.9576 37.9999 52.5769 37.9999C51.3269 37.4999 50.0769 35.3137 50.0769 32C50.0769 28.6863 51.3269 26.5 52.5769 26Z" fill="#DABF64"/>
<path d="M42.0769 32L52.5769 26V37.9999L42.0769 32Z" fill="#DABF64"/>
<path d="M11.577 37.9999C10.1962 37.9999 9.07696 35.3136 9.07696 32C9.07696 28.6863 10.1962 26 11.577 26C12.8269 26.5 14.0769 28.6863 14.0769 32C14.0769 35.3136 12.8269 37.4999 11.577 37.9999Z" fill="#DABF64"/>
<path d="M22.0769 31.9999L11.577 37.9999L11.577 26L22.0769 31.9999Z" fill="#DABF64"/>
</svg>
